<svg width="212" height="51" viewBox="0 0 212 51" fill="none" xmlns="http://www.w3.org/2000/svg">
<path d="M12.75 21.99C12.75 21.5758 12.4142 21.24 12 21.24C11.5858 21.24 11.25 21.5758 11.25 21.99H12.75ZM11.25 22C11.25 22.4142 11.5858 22.75 12 22.75C12.4142 22.75 12.75 22.4142 12.75 22H11.25ZM11.25 19C11.25 19.4142 11.5858 19.75 12 19.75C12.4142 19.75 12.75 19.4142 12.75 19H11.25ZM8.27587 13.9865C8.16802 14.3865 8.40479 14.7981 8.80472 14.9059C9.20465 15.0138 9.61628 14.777 9.72413 14.3771L8.27587 13.9865ZM11.25 21.99V22H12.75V21.99H11.25ZM14.25 14.9091C14.25 15.5071 13.8779 15.8232 13.0775 16.369C12.4012 16.8301 11.25 17.5419 11.25 19H12.75C12.75 18.4581 13.0988 18.1699 13.9225 17.6083C14.6221 17.1313 15.75 16.402 15.75 14.9091H14.25ZM12 12.75C13.2867 12.75 14.25 13.734 14.25 14.9091H15.75C15.75 12.8709 14.0801 11.25 12 11.25V12.75ZM9.72413 14.3771C9.96738 13.4751 10.8917 12.75 12 12.75V11.25C10.2678 11.25 8.70934 12.3791 8.27587 13.9865L9.72413 14.3771ZM8 9.75H16V8.25H8V9.75ZM19.25 13V21H20.75V13H19.25ZM16 24.25H8V25.75H16V24.25ZM4.75 21V13H3.25V21H4.75ZM8 24.25C6.20507 24.25 4.75 22.7949 4.75 21H3.25C3.25 23.6234 5.37665 25.75 8 25.75V24.25ZM19.25 21C19.25 22.7949 17.7949 24.25 16 24.25V25.75C18.6234 25.75 20.75 23.6234 20.75 21H19.25ZM16 9.75C17.7949 9.75 19.25 11.2051 19.25 13H20.75C20.75 10.3766 18.6234 8.25 16 8.25V9.75ZM8 8.25C5.37665 8.25 3.25 10.3766 3.25 13H4.75C4.75 11.2051 6.20507 9.75 8 9.75V8.25Z" fill="black"/>
<path d="M56.9999 14L50.9999 20M51.0001 14L57.0001 20M50 25H58C60.2091 25 62 23.2091 62 21V13C62 10.7909 60.2091 9 58 9H50C47.7909 9 46 10.7909 46 13V21C46 23.2091 47.7909 25 50 25Z" stroke="#C63E3E" stroke-width="1.5" stroke-linecap="round" stroke-linejoin="round"/>
<path d="M38 14L31 21L27.9999 18M29 25H37C39.2091 25 41 23.2091 41 21V13C41 10.7909 39.2091 9 37 9H29C26.7909 9 25 10.7909 25 13V21C25 23.2091 26.7909 25 29 25Z" stroke="#65B725" stroke-width="1.5" stroke-linecap="round" stroke-linejoin="round"/>
<path d="M104.08 46V32.9H105.18V38.98H110.82V32.9H111.92V46H110.82V40H105.18V46H104.08ZM114.66 46V45H117.58V37.5H114.66V36.5H118.64V45H121.56V46H114.66ZM117.16 33.68C117.16 33.4133 117.233 33.2067 117.38 33.06C117.54 32.9133 117.753 32.84 118.02 32.84C118.567 32.84 118.84 33.1333 118.84 33.72C118.84 34.3067 118.567 34.5933 118.02 34.58C117.447 34.58 117.16 34.28 117.16 33.68ZM124.56 45.54L124.82 44.5C126.14 44.94 127.16 45.16 127.88 45.16C128.6 45.16 129.153 45.0067 129.54 44.7C129.94 44.38 130.14 43.96 130.14 43.44C130.14 42.92 129.98 42.54 129.66 42.3C129.353 42.0467 128.707 41.8067 127.72 41.58C126.733 41.3533 125.993 41.0267 125.5 40.6C125.007 40.2 124.76 39.6 124.76 38.8C124.76 38 125.06 37.3933 125.66 36.98C126.273 36.5533 127.06 36.34 128.02 36.34C128.98 36.34 130.02 36.5533 131.14 36.98L130.86 37.92C129.727 37.5467 128.813 37.36 128.12 37.36C127.427 37.36 126.88 37.48 126.48 37.72C126.08 37.9867 125.88 38.3467 125.88 38.8C125.88 39.2533 126.053 39.6067 126.4 39.86C126.76 40.1133 127.447 40.3667 128.46 40.62C129.473 40.8733 130.193 41.2 130.62 41.6C131.047 41.9867 131.26 42.6 131.26 43.44C131.26 44.28 130.973 44.9467 130.4 45.44C129.84 45.9333 129.04 46.18 128 46.18C126.96 46.18 125.813 45.9667 124.56 45.54ZM134.12 37.76V36.76H136.06V34.34L137.12 34.14V36.76H141.7V37.76H137.12V42.32C137.12 43.3333 137.267 44.0667 137.56 44.52C137.867 44.96 138.407 45.18 139.18 45.18C139.473 45.18 139.927 45.1333 140.54 45.04C141.153 44.9333 141.573 44.84 141.8 44.76L142.04 45.74C141.787 45.8333 141.32 45.9333 140.64 46.04C139.973 46.1467 139.487 46.2 139.18 46.2C137.98 46.2 137.16 45.8867 136.72 45.26C136.28 44.62 136.06 43.6533 136.06 42.36V37.76H134.12ZM144.18 41.28C144.18 38.0133 145.453 36.38 148 36.38C150.547 36.38 151.82 38.0133 151.82 41.28C151.82 44.5467 150.547 46.18 148 46.18C145.453 46.18 144.18 44.5467 144.18 41.28ZM148 37.42C146.213 37.42 145.32 38.7067 145.32 41.28C145.32 43.8533 146.213 45.14 148 45.14C149.787 45.14 150.68 43.8533 150.68 41.28C150.68 38.7067 149.787 37.42 148 37.42ZM154.62 46V45H156.9V37.5H154.62V36.5H157.96L158 37.66C158.427 37.3933 159.027 37.1267 159.8 36.86C160.573 36.5933 161.253 36.4333 161.84 36.38H162.06V37.56H161.84C161.293 37.6 160.613 37.7333 159.8 37.96C159 38.1867 158.4 38.42 158 38.66V45H161.2V46H154.62ZM164.1 36.5H165.3L168.12 44.58H168.28L170.8 36.5H172L168.32 47.62C167.973 48.6733 167.607 49.3467 167.22 49.64C166.847 49.9333 166.08 50.0933 164.92 50.12V49.1C165.667 49.0867 166.167 48.98 166.42 48.78C166.673 48.58 166.907 48.16 167.12 47.52L167.58 46.14L164.1 36.5ZM181.16 36.82L180.92 37.86C180.093 37.5667 179.327 37.42 178.62 37.42C177.66 37.42 176.94 37.76 176.46 38.44C175.993 39.1067 175.76 40.04 175.76 41.24C175.76 42.44 176 43.3933 176.48 44.1C176.96 44.7933 177.673 45.14 178.62 45.14C179.26 45.14 180.06 44.9667 181.02 44.62L181.34 45.62C180.367 45.9933 179.467 46.18 178.64 46.18C177.333 46.18 176.333 45.7467 175.64 44.88C174.947 44 174.6 42.78 174.6 41.22C174.6 39.66 174.94 38.4667 175.62 37.64C176.3 36.8 177.3 36.38 178.62 36.38C179.46 36.38 180.307 36.5267 181.16 36.82ZM184.74 37.5V36.5H191.26L191.36 37.32L185.98 45H191.42V46H184.72L184.56 45.18L189.92 37.5H184.74ZM195.54 36.5L195.58 37.3C196.873 36.6867 197.947 36.38 198.8 36.38C199.653 36.38 200.32 36.6733 200.8 37.26C201.293 37.8467 201.54 38.6467 201.54 39.66V46H200.48V39.66C200.48 39.0067 200.32 38.4667 200 38.04C199.68 37.6267 199.2 37.42 198.56 37.42C197.92 37.42 196.927 37.7133 195.58 38.3V46H194.52V36.5H195.54ZM204.1 36.5H205.3L208.12 44.58H208.28L210.8 36.5H212L208.32 47.62C207.973 48.6733 207.607 49.3467 207.22 49.64C206.847 49.9333 206.08 50.0933 204.92 50.12V49.1C205.667 49.0867 206.167 48.98 206.42 48.78C206.673 48.58 206.907 48.16 207.12 47.52L207.58 46.14L204.1 36.5Z" fill="black"/>
<path d="M83.642 1.26C85.578 1.26 87.382 1.601 89.054 2.283C90.726 2.965 92.178 3.9 93.41 5.088C94.642 6.276 95.61 7.684 96.314 9.312C97.018 10.918 97.37 12.656 97.37 14.526C97.37 16.594 96.941 18.486 96.083 20.202C95.247 21.896 94.125 23.359 92.717 24.591C91.793 25.383 90.759 26.054 89.615 26.604C88.471 27.132 87.272 27.627 86.018 28.089C85.424 28.331 84.841 28.584 84.269 28.848C83.719 29.112 83.213 29.42 82.751 29.772V29.904C82.883 29.882 83.059 29.86 83.279 29.838C83.521 29.838 83.73 29.838 83.906 29.838C84.896 29.838 85.82 29.959 86.678 30.201C87.536 30.465 88.372 30.751 89.186 31.059C90 31.389 90.814 31.675 91.628 31.917C92.442 32.181 93.3 32.313 94.202 32.313C95.236 32.313 96.017 32.093 96.545 31.653C97.073 31.213 97.502 30.454 97.832 29.376H98.657C98.701 29.574 98.734 29.794 98.756 30.036C98.778 30.278 98.789 30.52 98.789 30.762C98.789 31.466 98.635 32.104 98.327 32.676C98.041 33.27 97.634 33.776 97.106 34.194C96.6 34.634 95.995 34.975 95.291 35.217C94.587 35.459 93.828 35.58 93.014 35.58C91.782 35.58 90.638 35.338 89.582 34.854C88.548 34.392 87.558 33.875 86.612 33.303C85.688 32.753 84.797 32.236 83.939 31.752C83.081 31.29 82.234 31.059 81.398 31.059C80.826 31.059 80.364 31.169 80.012 31.389C79.66 31.609 79.341 31.851 79.055 32.115C78.769 32.401 78.494 32.654 78.23 32.874C77.988 33.094 77.68 33.204 77.306 33.204C76.668 33.204 76.349 32.929 76.349 32.379C76.349 32.225 76.371 32.093 76.415 31.983C76.459 31.873 76.547 31.741 76.679 31.587C76.833 31.455 77.053 31.29 77.339 31.092C77.625 30.916 78.021 30.685 78.527 30.399L82.817 27.957C80.969 27.891 79.253 27.506 77.669 26.802C76.085 26.076 74.721 25.119 73.577 23.931C72.433 22.721 71.531 21.324 70.871 19.74C70.233 18.134 69.914 16.418 69.914 14.592C69.914 12.7 70.266 10.94 70.97 9.312C71.674 7.684 72.642 6.276 73.874 5.088C75.106 3.9 76.558 2.965 78.23 2.283C79.902 1.601 81.706 1.26 83.642 1.26ZM83.642 26.34C85.094 26.34 86.392 26.065 87.536 25.515C88.702 24.965 89.692 24.184 90.506 23.172C91.342 22.138 91.98 20.906 92.42 19.476C92.86 18.024 93.08 16.396 93.08 14.592C93.08 12.832 92.86 11.248 92.42 9.84C91.98 8.41 91.353 7.2 90.539 6.21C89.725 5.198 88.735 4.428 87.569 3.9C86.403 3.35 85.094 3.075 83.642 3.075C82.19 3.075 80.881 3.35 79.715 3.9C78.549 4.428 77.559 5.198 76.745 6.21C75.931 7.2 75.304 8.41 74.864 9.84C74.424 11.248 74.204 12.832 74.204 14.592C74.204 16.396 74.424 18.024 74.864 19.476C75.304 20.906 75.931 22.138 76.745 23.172C77.559 24.184 78.549 24.965 79.715 25.515C80.881 26.065 82.19 26.34 83.642 26.34ZM114.571 14.79C114.571 13.888 114.549 13.184 114.505 12.678C114.461 12.15 114.34 11.754 114.142 11.49C113.966 11.204 113.691 11.017 113.317 10.929C112.965 10.819 112.47 10.731 111.832 10.665V9.51H117.805V19.641C117.805 20.895 117.816 21.918 117.838 22.71C117.882 23.502 117.937 24.096 118.003 24.492C118.047 24.778 118.113 25.009 118.201 25.185C118.311 25.339 118.465 25.471 118.663 25.581C118.861 25.669 119.114 25.735 119.422 25.779C119.752 25.801 120.17 25.812 120.676 25.812V26.967L115.231 27.363L114.868 23.403H114.736C113.9 24.767 112.932 25.768 111.832 26.406C110.754 27.022 109.621 27.33 108.433 27.33C107.509 27.33 106.607 27.154 105.727 26.802C104.869 26.45 104.22 25.977 103.78 25.383C103.406 24.899 103.131 24.228 102.955 23.37C102.801 22.512 102.724 21.401 102.724 20.037V14.79C102.724 13.888 102.702 13.184 102.658 12.678C102.614 12.15 102.493 11.754 102.295 11.49C102.119 11.204 101.844 11.017 101.47 10.929C101.118 10.819 100.623 10.731 99.985 10.665V9.51H105.958V18.519C105.958 20.917 106.233 22.655 106.783 23.733C107.355 24.811 108.257 25.35 109.489 25.35C111.425 25.35 112.932 24.085 114.01 21.555C114.12 21.291 114.208 21.049 114.274 20.829C114.34 20.609 114.395 20.367 114.439 20.103C114.483 19.839 114.516 19.542 114.538 19.212C114.56 18.882 114.571 18.486 114.571 18.024V14.79ZM128.923 21.753C128.923 22.611 128.956 23.304 129.022 23.832C129.11 24.338 129.264 24.745 129.484 25.053C129.704 25.339 130.012 25.537 130.408 25.647C130.804 25.757 131.332 25.823 131.992 25.845V27H122.521V25.845C123.181 25.823 123.72 25.757 124.138 25.647C124.556 25.515 124.875 25.317 125.095 25.053C125.337 24.767 125.491 24.382 125.557 23.898C125.645 23.392 125.689 22.754 125.689 21.984V17.76C125.689 16.484 125.667 15.439 125.623 14.625C125.601 13.789 125.546 13.217 125.458 12.909C125.348 12.403 125.095 12.062 124.699 11.886C124.303 11.688 123.555 11.589 122.455 11.589V10.434L128.923 9.18V21.753ZM125.128 2.481C125.128 1.909 125.326 1.425 125.722 1.029C126.118 0.632998 126.602 0.434998 127.174 0.434998C127.746 0.434998 128.23 0.632998 128.626 1.029C129.022 1.425 129.22 1.909 129.22 2.481C129.22 3.053 129.022 3.537 128.626 3.933C128.23 4.329 127.746 4.527 127.174 4.527C126.602 4.527 126.118 4.329 125.722 3.933C125.326 3.537 125.128 3.053 125.128 2.481ZM149.08 27H133.24V26.868L144.658 10.896H140.995C140.049 10.896 139.268 10.94 138.652 11.028C138.058 11.094 137.563 11.248 137.167 11.49C136.793 11.71 136.507 12.029 136.309 12.447C136.111 12.843 135.957 13.382 135.847 14.064H134.791L135.319 9.51H149.509V9.642L138.256 25.482H142.117C143.239 25.482 144.163 25.438 144.889 25.35C145.637 25.262 146.242 25.086 146.704 24.822C147.188 24.558 147.562 24.195 147.826 23.733C148.112 23.271 148.354 22.655 148.552 21.885H149.641L149.08 27ZM168.242 23.931C166.372 26.197 164.051 27.33 161.279 27.33C159.981 27.33 158.804 27.121 157.748 26.703C156.692 26.263 155.779 25.658 155.009 24.888C154.261 24.096 153.678 23.161 153.26 22.083C152.842 20.983 152.633 19.773 152.633 18.453C152.633 17.111 152.853 15.868 153.293 14.724C153.733 13.58 154.349 12.601 155.141 11.787C155.955 10.973 156.912 10.335 158.012 9.873C159.134 9.411 160.355 9.18 161.675 9.18C163.809 9.18 165.459 9.763 166.625 10.929C167.791 12.073 168.374 13.723 168.374 15.879C168.374 16.187 168.308 16.374 168.176 16.44C168.066 16.506 167.791 16.539 167.351 16.539H156.494C156.45 16.715 156.417 16.935 156.395 17.199C156.373 17.441 156.362 17.716 156.362 18.024C156.362 19.168 156.494 20.213 156.758 21.159C157.044 22.083 157.44 22.875 157.946 23.535C158.474 24.195 159.09 24.712 159.794 25.086C160.52 25.438 161.323 25.614 162.203 25.614C163.127 25.614 163.985 25.416 164.777 25.02C165.569 24.602 166.383 23.931 167.219 23.007L168.242 23.931ZM162.797 15.021C163.237 15.021 163.589 15.01 163.853 14.988C164.117 14.966 164.315 14.922 164.447 14.856C164.579 14.79 164.667 14.702 164.711 14.592C164.755 14.46 164.777 14.295 164.777 14.097C164.777 13.085 164.447 12.282 163.787 11.688C163.149 11.072 162.269 10.764 161.147 10.764C158.771 10.764 157.297 12.183 156.725 15.021H162.797ZM177.259 21.753C177.259 22.655 177.281 23.37 177.325 23.898C177.369 24.426 177.479 24.833 177.655 25.119C177.853 25.383 178.128 25.559 178.48 25.647C178.832 25.735 179.327 25.801 179.965 25.845V27H171.187V25.845C171.825 25.823 172.331 25.768 172.705 25.68C173.079 25.57 173.365 25.383 173.563 25.119C173.761 24.855 173.882 24.481 173.926 23.997C173.992 23.491 174.025 22.82 174.025 21.984V18.123C174.025 16.627 174.003 15.461 173.959 14.625C173.937 13.789 173.827 13.173 173.629 12.777C173.453 12.381 173.167 12.15 172.771 12.084C172.375 11.996 171.825 11.952 171.121 11.952V10.797L176.896 9.543L177.358 13.635H177.49C177.776 12.975 178.128 12.37 178.546 11.82C178.986 11.27 179.459 10.808 179.965 10.434C180.471 10.038 180.999 9.73 181.549 9.51C182.099 9.29 182.66 9.18 183.232 9.18C183.936 9.18 184.486 9.356 184.882 9.708C185.3 10.038 185.509 10.489 185.509 11.061C185.509 11.589 185.344 12.007 185.014 12.315C184.684 12.601 184.211 12.744 183.595 12.744C183.243 12.744 182.946 12.7 182.704 12.612C182.462 12.524 182.242 12.436 182.044 12.348C181.868 12.238 181.692 12.139 181.516 12.051C181.362 11.963 181.186 11.919 180.988 11.919C180.394 11.919 179.8 12.304 179.206 13.074C178.612 13.822 178.15 14.779 177.82 15.945C177.644 16.583 177.501 17.309 177.391 18.123C177.303 18.915 177.259 19.751 177.259 20.631V21.753Z" fill="black"/>
</svg>
